<svg xmlns="http://www.w3.org/2000/svg" version="1.1" xmlns:xlink="http://www.w3.org/1999/xlink" xmlns:svgjs="http://svgjs.com/svgjs" width="2560" height="1080" preserveAspectRatio="none" viewBox="0 0 2560 1080"><g mask="url(&quot;#SvgjsMask1002&quot;)" fill="none"><rect width="2560" height="1080" x="0" y="0" fill="#0e2a47"></rect><path d="M -618.13211105295,844 C -515.73,775.2 -310.93,493.6 -106.13211105295,500 C 98.67,506.4 201.07,914.6 405.86788894705,876 C 610.67,837.4 713.07,333 917.86788894705,307 C 1122.67,281 1225.07,745.6 1429.86788894705,746 C 1634.67,746.4 1737.07,344.4 1941.86788894705,309 C 2146.67,273.6 2330.24,567.2 2453.8678889470502,569 C 2577.49,570.8 2538.77,368.2 2560,318" stroke="rgba(3, 218, 197, 1)" stroke-width="2"></path><path d="M -943.4709396773402,396 C -841.07,452.8 -636.27,698.6 -431.4709396773402,680 C -226.67,661.4 -124.27,302.8 80.5290603226598,303 C 285.33,303.2 387.73,663.2 592.5290603226598,681 C 797.33,698.8 899.73,351.8 1104.52906032266,392 C 1309.33,432.2 1411.73,916 1616.52906032266,882 C 1821.33,848 1939.83,230.4 2128.52906032266,222 C 2317.22,213.6 2473.71,716.4 2560,840" stroke="rgba(3, 218, 197, 1)" stroke-width="2"></path><path d="M -39.99130408354074,356 C 62.41,457.2 267.21,886 472.00869591645926,862 C 676.81,838 779.21,244.2 984.0086959164593,236 C 1188.81,227.8 1291.21,797.2 1496.0086959164591,821 C 1700.81,844.8 1803.21,396.8 2008.0086959164591,355 C 2212.81,313.2 2315.21,648.8 2520.008695916459,612 C 2724.81,575.2 3024.01,149.4 3032.008695916459,171 C 3040.01,192.6 2654.4,610.2 2560,720" stroke="rgba(3, 218, 197, 1)" stroke-width="2"></path><path d="M -233.6695360706874,337 C -131.27,393 73.53,597.4 278.3304639293126,617 C 483.13,636.6 585.53,433.4 790.3304639293126,435 C 995.13,436.6 1097.53,661.2 1302.3304639293126,625 C 1507.13,588.8 1609.53,217 1814.3304639293126,254 C 2019.13,291 2121.53,801.4 2326.330463929313,810 C 2531.13,818.6 2791.6,287.6 2838.330463929313,297 C 2885.06,306.4 2615.67,745 2560,857" stroke="rgba(3, 218, 197, 1)" stroke-width="2"></path></g><defs><mask id="SvgjsMask1002"><rect width="2560" height="1080" fill="#ffffff"></rect></mask></defs></svg>